<?xml version="1.0" encoding="utf-8" standalone="no"?>
<!DOCTYPE svg PUBLIC "-//W3C//DTD SVG 1.1//EN"
  "http://www.w3.org/Graphics/SVG/1.1/DTD/svg11.dtd">
<svg xmlns:xlink="http://www.w3.org/1999/xlink" width="1152pt" height="720pt" viewBox="0 0 1152 720" xmlns="http://www.w3.org/2000/svg" version="1.1">
 <metadata>
  <rdf:RDF xmlns:dc="http://purl.org/dc/elements/1.1/" xmlns:cc="http://creativecommons.org/ns#" xmlns:rdf="http://www.w3.org/1999/02/22-rdf-syntax-ns#">
   <cc:Work>
    <dc:type rdf:resource="http://purl.org/dc/dcmitype/StillImage"/>
    <dc:date>2024-05-01T00:44:22.992044</dc:date>
    <dc:format>image/svg+xml</dc:format>
    <dc:creator>
     <cc:Agent>
      <dc:title>Matplotlib v3.8.4, https://matplotlib.org/</dc:title>
     </cc:Agent>
    </dc:creator>
   </cc:Work>
  </rdf:RDF>
 </metadata>
 <defs>
  <style type="text/css">*{stroke-linejoin: round; stroke-linecap: butt}</style>
 </defs>
 <g id="figure_1">
  <g id="patch_1">
   <path d="M 0 720 
L 1152 720 
L 1152 0 
L 0 0 
z
" style="fill: #ffffff"/>
  </g>
  <g id="axes_1">
   <g id="line2d_1">
    <path d="M 203.957907 216.117546 
L 1032.462281 216.117546 
" clip-path="url(#p591e455ca1)" style="fill: none; stroke: #000000; stroke-width: 1.723578; stroke-linecap: square"/>
   </g>
   <g id="line2d_2">
    <path d="M 203.957907 259.494738 
L 1032.462281 259.494738 
" clip-path="url(#p591e455ca1)" style="fill: none; stroke: #000000; stroke-width: 1.723578; stroke-linecap: square"/>
   </g>
   <g id="line2d_3">
    <path d="M 203.957907 302.871931 
L 1032.462281 302.871931 
" clip-path="url(#p591e455ca1)" style="fill: none; stroke: #000000; stroke-width: 1.723578; stroke-linecap: square"/>
   </g>
   <g id="line2d_4">
    <path d="M 203.957907 346.249123 
L 1032.462281 346.249123 
" clip-path="url(#p591e455ca1)" style="fill: none; stroke: #000000; stroke-width: 1.723578; stroke-linecap: square"/>
   </g>
   <g id="line2d_5">
    <path d="M 203.957907 389.626315 
L 1032.462281 389.626315 
" clip-path="url(#p591e455ca1)" style="fill: none; stroke: #000000; stroke-width: 1.723578; stroke-linecap: square"/>
   </g>
   <g id="line2d_6">
    <path d="M 203.957907 433.003508 
L 1032.462281 433.003508 
" clip-path="url(#p591e455ca1)" style="fill: none; stroke: #000000; stroke-width: 1.723578; stroke-linecap: square"/>
   </g>
   <g id="line2d_7">
    <path d="M 212.633346 480.718419 
L 216.971065 472.042981 
" clip-path="url(#p591e455ca1)" style="fill: none; stroke: #778899; stroke-width: 1.5; stroke-linecap: square"/>
   </g>
   <g id="line2d_8">
    <path d="M 203.957907 474.970941 
L 1032.462281 474.970941 
" clip-path="url(#p591e455ca1)" style="fill: none; stroke: #778899; stroke-width: 1.723578; stroke-linecap: square"/>
   </g>
   <g id="line2d_9">
    <path d="M 203.957907 477.790459 
L 1032.462281 477.790459 
" clip-path="url(#p591e455ca1)" style="fill: none; stroke: #778899; stroke-width: 1.723578; stroke-linecap: square"/>
   </g>
   <g id="line2d_10">
    <path d="M 212.633346 524.095612 
L 216.971065 515.420173 
" clip-path="url(#p591e455ca1)" style="fill: none; stroke: #778899; stroke-width: 1.5; stroke-linecap: square"/>
   </g>
   <g id="line2d_11">
    <path d="M 203.957907 518.348134 
L 1032.462281 518.348134 
" clip-path="url(#p591e455ca1)" style="fill: none; stroke: #778899; stroke-width: 1.723578; stroke-linecap: square"/>
   </g>
   <g id="line2d_12">
    <path d="M 203.957907 521.167651 
L 1032.462281 521.167651 
" clip-path="url(#p591e455ca1)" style="fill: none; stroke: #778899; stroke-width: 1.723578; stroke-linecap: square"/>
   </g>
   <g id="patch_2">
    <path d="M 785.646056 466.512389 
L 796.924126 466.512389 
L 791.285091 474.645612 
z
" clip-path="url(#p591e455ca1)" style="fill: #778899"/>
   </g>
   <g id="patch_3">
    <path d="M 829.023249 466.512389 
L 840.301319 466.512389 
L 834.662284 474.645612 
z
" clip-path="url(#p591e455ca1)" style="fill: #778899"/>
   </g>
   <g id="patch_4">
    <path d="M 872.400441 466.512389 
L 883.678511 466.512389 
L 878.039476 474.645612 
z
" clip-path="url(#p591e455ca1)" style="fill: #778899"/>
   </g>
   <g id="patch_5">
    <path d="M 915.777633 466.512389 
L 927.055703 466.512389 
L 921.416668 474.645612 
z
" clip-path="url(#p591e455ca1)" style="fill: #778899"/>
   </g>
   <g id="patch_6">
    <path d="M 959.154826 509.889581 
L 970.432896 509.889581 
L 964.793861 518.022805 
z
" clip-path="url(#p591e455ca1)" style="fill: #778899"/>
   </g>
   <g id="patch_7">
    <path d="M 1002.532018 509.889581 
L 1013.810088 509.889581 
L 1008.171053 518.022805 
z
" clip-path="url(#p591e455ca1)" style="fill: #778899"/>
   </g>
   <g id="text_1">
    <!-- Qiskit Quantum Circuit of H$_2$ -->
    <g transform="translate(505.08 175.415792) scale(0.12 -0.12)">
     <defs>
      <path id="DejaVuSans-51" d="M 2522 4238 
Q 1834 4238 1429 3725 
Q 1025 3213 1025 2328 
Q 1025 1447 1429 934 
Q 1834 422 2522 422 
Q 3209 422 3611 934 
Q 4013 1447 4013 2328 
Q 4013 3213 3611 3725 
Q 3209 4238 2522 4238 
z
M 3406 84 
L 4238 -825 
L 3475 -825 
L 2784 -78 
Q 2681 -84 2626 -87 
Q 2572 -91 2522 -91 
Q 1538 -91 948 567 
Q 359 1225 359 2328 
Q 359 3434 948 4092 
Q 1538 4750 2522 4750 
Q 3503 4750 4090 4092 
Q 4678 3434 4678 2328 
Q 4678 1516 4351 937 
Q 4025 359 3406 84 
z
" transform="scale(0.015625)"/>
      <path id="DejaVuSans-69" d="M 603 3500 
L 1178 3500 
L 1178 0 
L 603 0 
L 603 3500 
z
M 603 4863 
L 1178 4863 
L 1178 4134 
L 603 4134 
L 603 4863 
z
" transform="scale(0.015625)"/>
      <path id="DejaVuSans-73" d="M 2834 3397 
L 2834 2853 
Q 2591 2978 2328 3040 
Q 2066 3103 1784 3103 
Q 1356 3103 1142 2972 
Q 928 2841 928 2578 
Q 928 2378 1081 2264 
Q 1234 2150 1697 2047 
L 1894 2003 
Q 2506 1872 2764 1633 
Q 3022 1394 3022 966 
Q 3022 478 2636 193 
Q 2250 -91 1575 -91 
Q 1294 -91 989 -36 
Q 684 19 347 128 
L 347 722 
Q 666 556 975 473 
Q 1284 391 1588 391 
Q 1994 391 2212 530 
Q 2431 669 2431 922 
Q 2431 1156 2273 1281 
Q 2116 1406 1581 1522 
L 1381 1569 
Q 847 1681 609 1914 
Q 372 2147 372 2553 
Q 372 3047 722 3315 
Q 1072 3584 1716 3584 
Q 2034 3584 2315 3537 
Q 2597 3491 2834 3397 
z
" transform="scale(0.015625)"/>
      <path id="DejaVuSans-6b" d="M 581 4863 
L 1159 4863 
L 1159 1991 
L 2875 3500 
L 3609 3500 
L 1753 1863 
L 3688 0 
L 2938 0 
L 1159 1709 
L 1159 0 
L 581 0 
L 581 4863 
z
" transform="scale(0.015625)"/>
      <path id="DejaVuSans-74" d="M 1172 4494 
L 1172 3500 
L 2356 3500 
L 2356 3053 
L 1172 3053 
L 1172 1153 
Q 1172 725 1289 603 
Q 1406 481 1766 481 
L 2356 481 
L 2356 0 
L 1766 0 
Q 1100 0 847 248 
Q 594 497 594 1153 
L 594 3053 
L 172 3053 
L 172 3500 
L 594 3500 
L 594 4494 
L 1172 4494 
z
" transform="scale(0.015625)"/>
      <path id="DejaVuSans-20" transform="scale(0.015625)"/>
      <path id="DejaVuSans-75" d="M 544 1381 
L 544 3500 
L 1119 3500 
L 1119 1403 
Q 1119 906 1312 657 
Q 1506 409 1894 409 
Q 2359 409 2629 706 
Q 2900 1003 2900 1516 
L 2900 3500 
L 3475 3500 
L 3475 0 
L 2900 0 
L 2900 538 
Q 2691 219 2414 64 
Q 2138 -91 1772 -91 
Q 1169 -91 856 284 
Q 544 659 544 1381 
z
M 1991 3584 
L 1991 3584 
z
" transform="scale(0.015625)"/>
      <path id="DejaVuSans-61" d="M 2194 1759 
Q 1497 1759 1228 1600 
Q 959 1441 959 1056 
Q 959 750 1161 570 
Q 1363 391 1709 391 
Q 2188 391 2477 730 
Q 2766 1069 2766 1631 
L 2766 1759 
L 2194 1759 
z
M 3341 1997 
L 3341 0 
L 2766 0 
L 2766 531 
Q 2569 213 2275 61 
Q 1981 -91 1556 -91 
Q 1019 -91 701 211 
Q 384 513 384 1019 
Q 384 1609 779 1909 
Q 1175 2209 1959 2209 
L 2766 2209 
L 2766 2266 
Q 2766 2663 2505 2880 
Q 2244 3097 1772 3097 
Q 1472 3097 1187 3025 
Q 903 2953 641 2809 
L 641 3341 
Q 956 3463 1253 3523 
Q 1550 3584 1831 3584 
Q 2591 3584 2966 3190 
Q 3341 2797 3341 1997 
z
" transform="scale(0.015625)"/>
      <path id="DejaVuSans-6e" d="M 3513 2113 
L 3513 0 
L 2938 0 
L 2938 2094 
Q 2938 2591 2744 2837 
Q 2550 3084 2163 3084 
Q 1697 3084 1428 2787 
Q 1159 2491 1159 1978 
L 1159 0 
L 581 0 
L 581 3500 
L 1159 3500 
L 1159 2956 
Q 1366 3272 1645 3428 
Q 1925 3584 2291 3584 
Q 2894 3584 3203 3211 
Q 3513 2838 3513 2113 
z
" transform="scale(0.015625)"/>
      <path id="DejaVuSans-6d" d="M 3328 2828 
Q 3544 3216 3844 3400 
Q 4144 3584 4550 3584 
Q 5097 3584 5394 3201 
Q 5691 2819 5691 2113 
L 5691 0 
L 5113 0 
L 5113 2094 
Q 5113 2597 4934 2840 
Q 4756 3084 4391 3084 
Q 3944 3084 3684 2787 
Q 3425 2491 3425 1978 
L 3425 0 
L 2847 0 
L 2847 2094 
Q 2847 2600 2669 2842 
Q 2491 3084 2119 3084 
Q 1678 3084 1418 2786 
Q 1159 2488 1159 1978 
L 1159 0 
L 581 0 
L 581 3500 
L 1159 3500 
L 1159 2956 
Q 1356 3278 1631 3431 
Q 1906 3584 2284 3584 
Q 2666 3584 2933 3390 
Q 3200 3197 3328 2828 
z
" transform="scale(0.015625)"/>
      <path id="DejaVuSans-43" d="M 4122 4306 
L 4122 3641 
Q 3803 3938 3442 4084 
Q 3081 4231 2675 4231 
Q 1875 4231 1450 3742 
Q 1025 3253 1025 2328 
Q 1025 1406 1450 917 
Q 1875 428 2675 428 
Q 3081 428 3442 575 
Q 3803 722 4122 1019 
L 4122 359 
Q 3791 134 3420 21 
Q 3050 -91 2638 -91 
Q 1578 -91 968 557 
Q 359 1206 359 2328 
Q 359 3453 968 4101 
Q 1578 4750 2638 4750 
Q 3056 4750 3426 4639 
Q 3797 4528 4122 4306 
z
" transform="scale(0.015625)"/>
      <path id="DejaVuSans-72" d="M 2631 2963 
Q 2534 3019 2420 3045 
Q 2306 3072 2169 3072 
Q 1681 3072 1420 2755 
Q 1159 2438 1159 1844 
L 1159 0 
L 581 0 
L 581 3500 
L 1159 3500 
L 1159 2956 
Q 1341 3275 1631 3429 
Q 1922 3584 2338 3584 
Q 2397 3584 2469 3576 
Q 2541 3569 2628 3553 
L 2631 2963 
z
" transform="scale(0.015625)"/>
      <path id="DejaVuSans-63" d="M 3122 3366 
L 3122 2828 
Q 2878 2963 2633 3030 
Q 2388 3097 2138 3097 
Q 1578 3097 1268 2742 
Q 959 2388 959 1747 
Q 959 1106 1268 751 
Q 1578 397 2138 397 
Q 2388 397 2633 464 
Q 2878 531 3122 666 
L 3122 134 
Q 2881 22 2623 -34 
Q 2366 -91 2075 -91 
Q 1284 -91 818 406 
Q 353 903 353 1747 
Q 353 2603 823 3093 
Q 1294 3584 2113 3584 
Q 2378 3584 2631 3529 
Q 2884 3475 3122 3366 
z
" transform="scale(0.015625)"/>
      <path id="DejaVuSans-6f" d="M 1959 3097 
Q 1497 3097 1228 2736 
Q 959 2375 959 1747 
Q 959 1119 1226 758 
Q 1494 397 1959 397 
Q 2419 397 2687 759 
Q 2956 1122 2956 1747 
Q 2956 2369 2687 2733 
Q 2419 3097 1959 3097 
z
M 1959 3584 
Q 2709 3584 3137 3096 
Q 3566 2609 3566 1747 
Q 3566 888 3137 398 
Q 2709 -91 1959 -91 
Q 1206 -91 779 398 
Q 353 888 353 1747 
Q 353 2609 779 3096 
Q 1206 3584 1959 3584 
z
" transform="scale(0.015625)"/>
      <path id="DejaVuSans-66" d="M 2375 4863 
L 2375 4384 
L 1825 4384 
Q 1516 4384 1395 4259 
Q 1275 4134 1275 3809 
L 1275 3500 
L 2222 3500 
L 2222 3053 
L 1275 3053 
L 1275 0 
L 697 0 
L 697 3053 
L 147 3053 
L 147 3500 
L 697 3500 
L 697 3744 
Q 697 4328 969 4595 
Q 1241 4863 1831 4863 
L 2375 4863 
z
" transform="scale(0.015625)"/>
      <path id="DejaVuSans-48" d="M 628 4666 
L 1259 4666 
L 1259 2753 
L 3553 2753 
L 3553 4666 
L 4184 4666 
L 4184 0 
L 3553 0 
L 3553 2222 
L 1259 2222 
L 1259 0 
L 628 0 
L 628 4666 
z
" transform="scale(0.015625)"/>
      <path id="DejaVuSans-32" d="M 1228 531 
L 3431 531 
L 3431 0 
L 469 0 
L 469 531 
Q 828 903 1448 1529 
Q 2069 2156 2228 2338 
Q 2531 2678 2651 2914 
Q 2772 3150 2772 3378 
Q 2772 3750 2511 3984 
Q 2250 4219 1831 4219 
Q 1534 4219 1204 4116 
Q 875 4013 500 3803 
L 500 4441 
Q 881 4594 1212 4672 
Q 1544 4750 1819 4750 
Q 2544 4750 2975 4387 
Q 3406 4025 3406 3419 
Q 3406 3131 3298 2873 
Q 3191 2616 2906 2266 
Q 2828 2175 2409 1742 
Q 1991 1309 1228 531 
z
" transform="scale(0.015625)"/>
     </defs>
     <use xlink:href="#DejaVuSans-51" transform="translate(0 0.015625)"/>
     <use xlink:href="#DejaVuSans-69" transform="translate(78.710938 0.015625)"/>
     <use xlink:href="#DejaVuSans-73" transform="translate(106.494141 0.015625)"/>
     <use xlink:href="#DejaVuSans-6b" transform="translate(158.59375 0.015625)"/>
     <use xlink:href="#DejaVuSans-69" transform="translate(216.503906 0.015625)"/>
     <use xlink:href="#DejaVuSans-74" transform="translate(244.287109 0.015625)"/>
     <use xlink:href="#DejaVuSans-20" transform="translate(283.496094 0.015625)"/>
     <use xlink:href="#DejaVuSans-51" transform="translate(315.283203 0.015625)"/>
     <use xlink:href="#DejaVuSans-75" transform="translate(393.994141 0.015625)"/>
     <use xlink:href="#DejaVuSans-61" transform="translate(457.373047 0.015625)"/>
     <use xlink:href="#DejaVuSans-6e" transform="translate(518.652344 0.015625)"/>
     <use xlink:href="#DejaVuSans-74" transform="translate(582.03125 0.015625)"/>
     <use xlink:href="#DejaVuSans-75" transform="translate(621.240234 0.015625)"/>
     <use xlink:href="#DejaVuSans-6d" transform="translate(684.619141 0.015625)"/>
     <use xlink:href="#DejaVuSans-20" transform="translate(782.03125 0.015625)"/>
     <use xlink:href="#DejaVuSans-43" transform="translate(813.818359 0.015625)"/>
     <use xlink:href="#DejaVuSans-69" transform="translate(883.642578 0.015625)"/>
     <use xlink:href="#DejaVuSans-72" transform="translate(911.425781 0.015625)"/>
     <use xlink:href="#DejaVuSans-63" transform="translate(952.539062 0.015625)"/>
     <use xlink:href="#DejaVuSans-75" transform="translate(1007.519531 0.015625)"/>
     <use xlink:href="#DejaVuSans-69" transform="translate(1070.898438 0.015625)"/>
     <use xlink:href="#DejaVuSans-74" transform="translate(1098.681641 0.015625)"/>
     <use xlink:href="#DejaVuSans-20" transform="translate(1137.890625 0.015625)"/>
     <use xlink:href="#DejaVuSans-6f" transform="translate(1169.677734 0.015625)"/>
     <use xlink:href="#DejaVuSans-66" transform="translate(1230.859375 0.015625)"/>
     <use xlink:href="#DejaVuSans-20" transform="translate(1266.064453 0.015625)"/>
     <use xlink:href="#DejaVuSans-48" transform="translate(1297.851562 0.015625)"/>
     <use xlink:href="#DejaVuSans-32" transform="translate(1374.003906 -16.390625) scale(0.7)"/>
    </g>
   </g>
   <g id="patch_8">
    <path d="M 199.620188 194.42895 
L -884.80962 194.42895 
L -884.80962 584.823681 
L 199.620188 584.823681 
z
" clip-path="url(#p591e455ca1)" style="fill: #ffffff; stroke: #ffffff; stroke-width: 1.292684; stroke-linejoin: miter"/>
   </g>
   <g id="line2d_13">
    <path d="M 270.758783 259.494738 
L 270.758783 216.117546 
" clip-path="url(#p591e455ca1)" style="fill: none; stroke: #002d9c; stroke-width: 1.723578; stroke-linecap: square"/>
   </g>
   <g id="line2d_14">
    <path d="M 270.758783 346.249123 
L 270.758783 302.871931 
" clip-path="url(#p591e455ca1)" style="fill: none; stroke: #002d9c; stroke-width: 1.723578; stroke-linecap: square"/>
   </g>
   <g id="line2d_15">
    <path d="M 314.135976 259.494738 
L 314.135976 216.117546 
" clip-path="url(#p591e455ca1)" style="fill: none; stroke: #9f1853; stroke-width: 1.723578; stroke-linecap: square"/>
   </g>
   <g id="line2d_16">
    <path d="M 314.135976 346.249123 
L 314.135976 302.871931 
" clip-path="url(#p591e455ca1)" style="fill: none; stroke: #9f1853; stroke-width: 1.723578; stroke-linecap: square"/>
   </g>
   <g id="line2d_17">
    <path d="M 379.201764 433.003508 
L 379.201764 216.117546 
" clip-path="url(#p591e455ca1)" style="fill: none; stroke: #9f1853; stroke-width: 1.723578; stroke-linecap: square"/>
   </g>
   <g id="line2d_18">
    <path d="M 465.956149 433.003508 
L 465.956149 216.117546 
" clip-path="url(#p591e455ca1)" style="fill: none; stroke: #9f1853; stroke-width: 1.723578; stroke-linecap: square"/>
   </g>
   <g id="line2d_19">
    <path d="M 552.710534 433.003508 
L 552.710534 302.871931 
" clip-path="url(#p591e455ca1)" style="fill: none; stroke: #9f1853; stroke-width: 1.723578; stroke-linecap: square"/>
   </g>
   <g id="line2d_20">
    <path d="M 639.464918 433.003508 
L 639.464918 302.871931 
" clip-path="url(#p591e455ca1)" style="fill: none; stroke: #9f1853; stroke-width: 1.723578; stroke-linecap: square"/>
   </g>
   <g id="line2d_21">
    <path d="M 792.69485 216.117546 
L 792.69485 466.512389 
" clip-path="url(#p591e455ca1)" style="fill: none; stroke: #778899; stroke-width: 1.723578; stroke-linecap: square"/>
   </g>
   <g id="line2d_22">
    <path d="M 789.875333 216.117546 
L 789.875333 466.512389 
" clip-path="url(#p591e455ca1)" style="fill: none; stroke: #778899; stroke-width: 1.723578; stroke-linecap: square"/>
   </g>
   <g id="line2d_23">
    <path d="M 836.072042 259.494738 
L 836.072042 466.512389 
" clip-path="url(#p591e455ca1)" style="fill: none; stroke: #778899; stroke-width: 1.723578; stroke-linecap: square"/>
   </g>
   <g id="line2d_24">
    <path d="M 833.252525 259.494738 
L 833.252525 466.512389 
" clip-path="url(#p591e455ca1)" style="fill: none; stroke: #778899; stroke-width: 1.723578; stroke-linecap: square"/>
   </g>
   <g id="line2d_25">
    <path d="M 879.449235 302.871931 
L 879.449235 466.512389 
" clip-path="url(#p591e455ca1)" style="fill: none; stroke: #778899; stroke-width: 1.723578; stroke-linecap: square"/>
   </g>
   <g id="line2d_26">
    <path d="M 876.629717 302.871931 
L 876.629717 466.512389 
" clip-path="url(#p591e455ca1)" style="fill: none; stroke: #778899; stroke-width: 1.723578; stroke-linecap: square"/>
   </g>
   <g id="line2d_27">
    <path d="M 922.826427 346.249123 
L 922.826427 466.512389 
" clip-path="url(#p591e455ca1)" style="fill: none; stroke: #778899; stroke-width: 1.723578; stroke-linecap: square"/>
   </g>
   <g id="line2d_28">
    <path d="M 920.00691 346.249123 
L 920.00691 466.512389 
" clip-path="url(#p591e455ca1)" style="fill: none; stroke: #778899; stroke-width: 1.723578; stroke-linecap: square"/>
   </g>
   <g id="line2d_29">
    <path d="M 966.203619 389.626315 
L 966.203619 509.889581 
" clip-path="url(#p591e455ca1)" style="fill: none; stroke: #778899; stroke-width: 1.723578; stroke-linecap: square"/>
   </g>
   <g id="line2d_30">
    <path d="M 963.384102 389.626315 
L 963.384102 509.889581 
" clip-path="url(#p591e455ca1)" style="fill: none; stroke: #778899; stroke-width: 1.723578; stroke-linecap: square"/>
   </g>
   <g id="line2d_31">
    <path d="M 1009.580812 433.003508 
L 1009.580812 509.889581 
" clip-path="url(#p591e455ca1)" style="fill: none; stroke: #778899; stroke-width: 1.723578; stroke-linecap: square"/>
   </g>
   <g id="line2d_32">
    <path d="M 1006.761294 433.003508 
L 1006.761294 509.889581 
" clip-path="url(#p591e455ca1)" style="fill: none; stroke: #778899; stroke-width: 1.723578; stroke-linecap: square"/>
   </g>
   <g id="patch_9">
    <path d="M 739.449347 237.806142 
L 756.366452 237.806142 
L 756.366452 209.610967 
L 739.449347 209.610967 
z
" clip-path="url(#p591e455ca1)" style="fill: #a8a8a8; opacity: 0.6"/>
   </g>
   <g id="patch_10">
    <path d="M 739.449347 281.183335 
L 756.366452 281.183335 
L 756.366452 237.806142 
L 739.449347 237.806142 
z
" clip-path="url(#p591e455ca1)" style="fill: #a8a8a8; opacity: 0.6"/>
   </g>
   <g id="patch_11">
    <path d="M 739.449347 324.560527 
L 756.366452 324.560527 
L 756.366452 281.183335 
L 739.449347 281.183335 
z
" clip-path="url(#p591e455ca1)" style="fill: #a8a8a8; opacity: 0.6"/>
   </g>
   <g id="patch_12">
    <path d="M 739.449347 367.937719 
L 756.366452 367.937719 
L 756.366452 324.560527 
L 739.449347 324.560527 
z
" clip-path="url(#p591e455ca1)" style="fill: #a8a8a8; opacity: 0.6"/>
   </g>
   <g id="patch_13">
    <path d="M 739.449347 411.314912 
L 756.366452 411.314912 
L 756.366452 367.937719 
L 739.449347 367.937719 
z
" clip-path="url(#p591e455ca1)" style="fill: #a8a8a8; opacity: 0.6"/>
   </g>
   <g id="patch_14">
    <path d="M 739.449347 454.692104 
L 756.366452 454.692104 
L 756.366452 411.314912 
L 739.449347 411.314912 
z
" clip-path="url(#p591e455ca1)" style="fill: #a8a8a8; opacity: 0.6"/>
   </g>
   <g id="patch_15">
    <path d="M 213.284004 230.215134 
L 241.479179 230.215134 
L 241.479179 202.019959 
L 213.284004 202.019959 
z
" clip-path="url(#p591e455ca1)" style="fill: #9f1853; stroke: #9f1853; stroke-width: 1.292684; stroke-linejoin: miter"/>
   </g>
   <g id="patch_16">
    <path d="M 213.284004 273.592326 
L 241.479179 273.592326 
L 241.479179 245.397151 
L 213.284004 245.397151 
z
" clip-path="url(#p591e455ca1)" style="fill: #9f1853; stroke: #9f1853; stroke-width: 1.292684; stroke-linejoin: miter"/>
   </g>
   <g id="patch_17">
    <path d="M 213.284004 316.969518 
L 241.479179 316.969518 
L 241.479179 288.774343 
L 213.284004 288.774343 
z
" clip-path="url(#p591e455ca1)" style="fill: #9f1853; stroke: #9f1853; stroke-width: 1.292684; stroke-linejoin: miter"/>
   </g>
   <g id="patch_18">
    <path d="M 213.284004 360.346711 
L 241.479179 360.346711 
L 241.479179 332.151536 
L 213.284004 332.151536 
z
" clip-path="url(#p591e455ca1)" style="fill: #9f1853; stroke: #9f1853; stroke-width: 1.292684; stroke-linejoin: miter"/>
   </g>
   <g id="patch_19">
    <path d="M 213.284004 403.723903 
L 241.479179 403.723903 
L 241.479179 375.528728 
L 213.284004 375.528728 
z
" clip-path="url(#p591e455ca1)" style="fill: #9f1853; stroke: #9f1853; stroke-width: 1.292684; stroke-linejoin: miter"/>
   </g>
   <g id="patch_20">
    <path d="M 213.284004 447.101095 
L 241.479179 447.101095 
L 241.479179 418.90592 
L 213.284004 418.90592 
z
" clip-path="url(#p591e455ca1)" style="fill: #9f1853; stroke: #9f1853; stroke-width: 1.292684; stroke-linejoin: miter"/>
   </g>
   <g id="patch_21">
    <path d="M 270.758783 220.346822 
C 271.880401 220.346822 272.95623 219.901199 273.749333 219.108096 
C 274.542436 218.314993 274.98806 217.239163 274.98806 216.117546 
C 274.98806 214.995929 274.542436 213.920099 273.749333 213.126996 
C 272.95623 212.333893 271.880401 211.88827 270.758783 211.88827 
C 269.637166 211.88827 268.561337 212.333893 267.768233 213.126996 
C 266.97513 213.920099 266.529507 214.995929 266.529507 216.117546 
C 266.529507 217.239163 266.97513 218.314993 267.768233 219.108096 
C 268.561337 219.901199 269.637166 220.346822 270.758783 220.346822 
z
" clip-path="url(#p591e455ca1)" style="fill: #ffffff; stroke: #002d9c; stroke-width: 1.292684; stroke-linejoin: miter"/>
   </g>
   <g id="patch_22">
    <path d="M 270.758783 269.36305 
C 273.37589 269.36305 275.886159 268.323262 277.736733 266.472688 
C 279.587307 264.622114 280.627095 262.111845 280.627095 259.494738 
C 280.627095 256.877632 279.587307 254.367363 277.736733 252.516789 
C 275.886159 250.666215 273.37589 249.626427 270.758783 249.626427 
C 268.141677 249.626427 265.631408 250.666215 263.780834 252.516789 
C 261.93026 254.367363 260.890472 256.877632 260.890472 259.494738 
C 260.890472 262.111845 261.93026 264.622114 263.780834 266.472688 
C 265.631408 268.323262 268.141677 269.36305 270.758783 269.36305 
z
" clip-path="url(#p591e455ca1)" style="fill: #002d9c; stroke: #002d9c; stroke-width: 1.723578; stroke-linejoin: miter"/>
   </g>
   <g id="patch_23">
    <path d="M 270.758783 307.101207 
C 271.880401 307.101207 272.95623 306.655584 273.749333 305.862481 
C 274.542436 305.069378 274.98806 303.993548 274.98806 302.871931 
C 274.98806 301.750314 274.542436 300.674484 273.749333 299.881381 
C 272.95623 299.088278 271.880401 298.642654 270.758783 298.642654 
C 269.637166 298.642654 268.561337 299.088278 267.768233 299.881381 
C 266.97513 300.674484 266.529507 301.750314 266.529507 302.871931 
C 266.529507 303.993548 266.97513 305.069378 267.768233 305.862481 
C 268.561337 306.655584 269.637166 307.101207 270.758783 307.101207 
z
" clip-path="url(#p591e455ca1)" style="fill: #ffffff; stroke: #002d9c; stroke-width: 1.292684; stroke-linejoin: miter"/>
   </g>
   <g id="patch_24">
    <path d="M 270.758783 356.117434 
C 273.37589 356.117434 275.886159 355.077647 277.736733 353.227073 
C 279.587307 351.376499 280.627095 348.86623 280.627095 346.249123 
C 280.627095 343.632016 279.587307 341.121747 277.736733 339.271173 
C 275.886159 337.420599 273.37589 336.380812 270.758783 336.380812 
C 268.141677 336.380812 265.631408 337.420599 263.780834 339.271173 
C 261.93026 341.121747 260.890472 343.632016 260.890472 346.249123 
C 260.890472 348.86623 261.93026 351.376499 263.780834 353.227073 
C 265.631408 355.077647 268.141677 356.117434 270.758783 356.117434 
z
" clip-path="url(#p591e455ca1)" style="fill: #002d9c; stroke: #002d9c; stroke-width: 1.723578; stroke-linejoin: miter"/>
   </g>
   <g id="patch_25">
    <path d="M 314.135976 220.346822 
C 315.257593 220.346822 316.333423 219.901199 317.126526 219.108096 
C 317.919629 218.314993 318.365252 217.239163 318.365252 216.117546 
C 318.365252 214.995929 317.919629 213.920099 317.126526 213.126996 
C 316.333423 212.333893 315.257593 211.88827 314.135976 211.88827 
C 313.014359 211.88827 311.938529 212.333893 311.145426 213.126996 
C 310.352323 213.920099 309.906699 214.995929 309.906699 216.117546 
C 309.906699 217.239163 310.352323 218.314993 311.145426 219.108096 
C 311.938529 219.901199 313.014359 220.346822 314.135976 220.346822 
z
" clip-path="url(#p591e455ca1)" style="fill: #9f1853; stroke: #9f1853; stroke-width: 1.292684; stroke-linejoin: miter"/>
   </g>
   <g id="patch_26">
    <path d="M 300.038388 273.592326 
L 328.233563 273.592326 
L 328.233563 245.397151 
L 300.038388 245.397151 
z
" clip-path="url(#p591e455ca1)" style="fill: #9f1853; stroke: #9f1853; stroke-width: 1.292684; stroke-linejoin: miter"/>
   </g>
   <g id="patch_27">
    <path d="M 314.135976 307.101207 
C 315.257593 307.101207 316.333423 306.655584 317.126526 305.862481 
C 317.919629 305.069378 318.365252 303.993548 318.365252 302.871931 
C 318.365252 301.750314 317.919629 300.674484 317.126526 299.881381 
C 316.333423 299.088278 315.257593 298.642654 314.135976 298.642654 
C 313.014359 298.642654 311.938529 299.088278 311.145426 299.881381 
C 310.352323 300.674484 309.906699 301.750314 309.906699 302.871931 
C 309.906699 303.993548 310.352323 305.069378 311.145426 305.862481 
C 311.938529 306.655584 313.014359 307.101207 314.135976 307.101207 
z
" clip-path="url(#p591e455ca1)" style="fill: #9f1853; stroke: #9f1853; stroke-width: 1.292684; stroke-linejoin: miter"/>
   </g>
   <g id="patch_28">
    <path d="M 300.038388 360.346711 
L 328.233563 360.346711 
L 328.233563 332.151536 
L 300.038388 332.151536 
z
" clip-path="url(#p591e455ca1)" style="fill: #9f1853; stroke: #9f1853; stroke-width: 1.292684; stroke-linejoin: miter"/>
   </g>
   <g id="patch_29">
    <path d="M 379.201764 220.346822 
C 380.323381 220.346822 381.399211 219.901199 382.192314 219.108096 
C 382.985417 218.314993 383.43104 217.239163 383.43104 216.117546 
C 383.43104 214.995929 382.985417 213.920099 382.192314 213.126996 
C 381.399211 212.333893 380.323381 211.88827 379.201764 211.88827 
C 378.080147 211.88827 377.004317 212.333893 376.211214 213.126996 
C 375.418111 213.920099 374.972488 214.995929 374.972488 216.117546 
C 374.972488 217.239163 375.418111 218.314993 376.211214 219.108096 
C 377.004317 219.901199 378.080147 220.346822 379.201764 220.346822 
z
" clip-path="url(#p591e455ca1)" style="fill: #9f1853; stroke: #9f1853; stroke-width: 1.292684; stroke-linejoin: miter"/>
   </g>
   <g id="patch_30">
    <path d="M 352.099694 447.101095 
L 406.303834 447.101095 
L 406.303834 375.528728 
L 352.099694 375.528728 
z
" clip-path="url(#p591e455ca1)" style="fill: #9f1853; stroke: #9f1853; stroke-width: 1.292684; stroke-linejoin: miter"/>
   </g>
   <g id="patch_31">
    <path d="M 465.956149 220.346822 
C 467.077766 220.346822 468.153596 219.901199 468.946699 219.108096 
C 469.739802 218.314993 470.185425 217.239163 470.185425 216.117546 
C 470.185425 214.995929 469.739802 213.920099 468.946699 213.126996 
C 468.153596 212.333893 467.077766 211.88827 465.956149 211.88827 
C 464.834532 211.88827 463.758702 212.333893 462.965599 213.126996 
C 462.172496 213.920099 461.726873 214.995929 461.726873 216.117546 
C 461.726873 217.239163 462.172496 218.314993 462.965599 219.108096 
C 463.758702 219.901199 464.834532 220.346822 465.956149 220.346822 
z
" clip-path="url(#p591e455ca1)" style="fill: #9f1853; stroke: #9f1853; stroke-width: 1.292684; stroke-linejoin: miter"/>
   </g>
   <g id="patch_32">
    <path d="M 465.956149 263.724015 
C 467.077766 263.724015 468.153596 263.278391 468.946699 262.485288 
C 469.739802 261.692185 470.185425 260.616356 470.185425 259.494738 
C 470.185425 258.373121 469.739802 257.297292 468.946699 256.504188 
C 468.153596 255.711085 467.077766 255.265462 465.956149 255.265462 
C 464.834532 255.265462 463.758702 255.711085 462.965599 256.504188 
C 462.172496 257.297292 461.726873 258.373121 461.726873 259.494738 
C 461.726873 260.616356 462.172496 261.692185 462.965599 262.485288 
C 463.758702 263.278391 464.834532 263.724015 465.956149 263.724015 
z
" clip-path="url(#p591e455ca1)" style="fill: #9f1853; stroke: #9f1853; stroke-width: 1.292684; stroke-linejoin: miter"/>
   </g>
   <g id="patch_33">
    <path d="M 437.04525 447.101095 
L 494.867048 447.101095 
L 494.867048 375.528728 
L 437.04525 375.528728 
z
" clip-path="url(#p591e455ca1)" style="fill: #9f1853; stroke: #9f1853; stroke-width: 1.292684; stroke-linejoin: miter"/>
   </g>
   <g id="patch_34">
    <path d="M 538.612946 230.215134 
L 566.808121 230.215134 
L 566.808121 202.019959 
L 538.612946 202.019959 
z
" clip-path="url(#p591e455ca1)" style="fill: #9f1853; stroke: #9f1853; stroke-width: 1.292684; stroke-linejoin: miter"/>
   </g>
   <g id="patch_35">
    <path d="M 538.612946 273.592326 
L 566.808121 273.592326 
L 566.808121 245.397151 
L 538.612946 245.397151 
z
" clip-path="url(#p591e455ca1)" style="fill: #9f1853; stroke: #9f1853; stroke-width: 1.292684; stroke-linejoin: miter"/>
   </g>
   <g id="patch_36">
    <path d="M 552.710534 307.101207 
C 553.832151 307.101207 554.90798 306.655584 555.701083 305.862481 
C 556.494187 305.069378 556.93981 303.993548 556.93981 302.871931 
C 556.93981 301.750314 556.494187 300.674484 555.701083 299.881381 
C 554.90798 299.088278 553.832151 298.642654 552.710534 298.642654 
C 551.588916 298.642654 550.513087 299.088278 549.719984 299.881381 
C 548.926881 300.674484 548.481257 301.750314 548.481257 302.871931 
C 548.481257 303.993548 548.926881 305.069378 549.719984 305.862481 
C 550.513087 306.655584 551.588916 307.101207 552.710534 307.101207 
z
" clip-path="url(#p591e455ca1)" style="fill: #9f1853; stroke: #9f1853; stroke-width: 1.292684; stroke-linejoin: miter"/>
   </g>
   <g id="patch_37">
    <path d="M 525.608464 447.101095 
L 579.812603 447.101095 
L 579.812603 375.528728 
L 525.608464 375.528728 
z
" clip-path="url(#p591e455ca1)" style="fill: #9f1853; stroke: #9f1853; stroke-width: 1.292684; stroke-linejoin: miter"/>
   </g>
   <g id="patch_38">
    <path d="M 639.464918 307.101207 
C 640.586535 307.101207 641.662365 306.655584 642.455468 305.862481 
C 643.248571 305.069378 643.694194 303.993548 643.694194 302.871931 
C 643.694194 301.750314 643.248571 300.674484 642.455468 299.881381 
C 641.662365 299.088278 640.586535 298.642654 639.464918 298.642654 
C 638.343301 298.642654 637.267471 299.088278 636.474368 299.881381 
C 635.681265 300.674484 635.235642 301.750314 635.235642 302.871931 
C 635.235642 303.993548 635.681265 305.069378 636.474368 305.862481 
C 637.267471 306.655584 638.343301 307.101207 639.464918 307.101207 
z
" clip-path="url(#p591e455ca1)" style="fill: #9f1853; stroke: #9f1853; stroke-width: 1.292684; stroke-linejoin: miter"/>
   </g>
   <g id="patch_39">
    <path d="M 639.464918 350.478399 
C 640.586535 350.478399 641.662365 350.032776 642.455468 349.239673 
C 643.248571 348.44657 643.694194 347.37074 643.694194 346.249123 
C 643.694194 345.127506 643.248571 344.051676 642.455468 343.258573 
C 641.662365 342.46547 640.586535 342.019847 639.464918 342.019847 
C 638.343301 342.019847 637.267471 342.46547 636.474368 343.258573 
C 635.681265 344.051676 635.235642 345.127506 635.235642 346.249123 
C 635.235642 347.37074 635.681265 348.44657 636.474368 349.239673 
C 637.267471 350.032776 638.343301 350.478399 639.464918 350.478399 
z
" clip-path="url(#p591e455ca1)" style="fill: #9f1853; stroke: #9f1853; stroke-width: 1.292684; stroke-linejoin: miter"/>
   </g>
   <g id="patch_40">
    <path d="M 610.55402 447.101095 
L 668.375817 447.101095 
L 668.375817 375.528728 
L 610.55402 375.528728 
z
" clip-path="url(#p591e455ca1)" style="fill: #9f1853; stroke: #9f1853; stroke-width: 1.292684; stroke-linejoin: miter"/>
   </g>
   <g id="patch_41">
    <path d="M 690.433119 316.969518 
L 718.628294 316.969518 
L 718.628294 288.774343 
L 690.433119 288.774343 
z
" clip-path="url(#p591e455ca1)" style="fill: #9f1853; stroke: #9f1853; stroke-width: 1.292684; stroke-linejoin: miter"/>
   </g>
   <g id="patch_42">
    <path d="M 690.433119 360.346711 
L 718.628294 360.346711 
L 718.628294 332.151536 
L 690.433119 332.151536 
z
" clip-path="url(#p591e455ca1)" style="fill: #9f1853; stroke: #9f1853; stroke-width: 1.292684; stroke-linejoin: miter"/>
   </g>
   <g id="patch_43">
    <path d="M 777.187504 230.215134 
L 805.382679 230.215134 
L 805.382679 202.019959 
L 777.187504 202.019959 
z
" clip-path="url(#p591e455ca1)" style="fill: #a8a8a8; stroke: #a8a8a8; stroke-width: 1.292684; stroke-linejoin: miter"/>
   </g>
   <g id="patch_44">
    <path d="M 801.153403 220.346822 
C 801.153403 217.730587 800.112999 215.21883 798.263041 213.368873 
C 796.413084 211.518915 793.901327 210.478511 791.285091 210.478511 
C 788.668856 210.478511 786.157099 211.518915 784.307142 213.368873 
C 782.457184 215.21883 781.41678 217.730587 781.41678 220.346822 
" clip-path="url(#p591e455ca1)" style="fill: none; stroke: #000000; stroke-width: 1.723578; stroke-linejoin: miter"/>
   </g>
   <g id="line2d_33">
    <path d="M 791.285091 220.346822 
L 801.153403 210.478511 
" clip-path="url(#p591e455ca1)" style="fill: none; stroke: #000000; stroke-width: 1.723578; stroke-linecap: square"/>
   </g>
   <g id="patch_45">
    <path d="M 820.564696 273.592326 
L 848.759871 273.592326 
L 848.759871 245.397151 
L 820.564696 245.397151 
z
" clip-path="url(#p591e455ca1)" style="fill: #a8a8a8; stroke: #a8a8a8; stroke-width: 1.292684; stroke-linejoin: miter"/>
   </g>
   <g id="patch_46">
    <path d="M 844.530595 263.724015 
C 844.530595 261.10778 843.490191 258.596022 841.640234 256.746065 
C 839.790276 254.896107 837.278519 253.855703 834.662284 253.855703 
C 832.046049 253.855703 829.534292 254.896107 827.684334 256.746065 
C 825.834376 258.596022 824.793972 261.10778 824.793972 263.724015 
" clip-path="url(#p591e455ca1)" style="fill: none; stroke: #000000; stroke-width: 1.723578; stroke-linejoin: miter"/>
   </g>
   <g id="line2d_34">
    <path d="M 834.662284 263.724015 
L 844.530595 253.855703 
" clip-path="url(#p591e455ca1)" style="fill: none; stroke: #000000; stroke-width: 1.723578; stroke-linecap: square"/>
   </g>
   <g id="patch_47">
    <path d="M 863.941889 316.969518 
L 892.137064 316.969518 
L 892.137064 288.774343 
L 863.941889 288.774343 
z
" clip-path="url(#p591e455ca1)" style="fill: #a8a8a8; stroke: #a8a8a8; stroke-width: 1.292684; stroke-linejoin: miter"/>
   </g>
   <g id="patch_48">
    <path d="M 887.907787 307.101207 
C 887.907787 304.484972 886.867383 301.973215 885.017426 300.123257 
C 883.167468 298.2733 880.655711 297.232896 878.039476 297.232896 
C 875.423241 297.232896 872.911484 298.2733 871.061526 300.123257 
C 869.211569 301.973215 868.171165 304.484972 868.171165 307.101207 
" clip-path="url(#p591e455ca1)" style="fill: none; stroke: #000000; stroke-width: 1.723578; stroke-linejoin: miter"/>
   </g>
   <g id="line2d_35">
    <path d="M 878.039476 307.101207 
L 887.907787 297.232896 
" clip-path="url(#p591e455ca1)" style="fill: none; stroke: #000000; stroke-width: 1.723578; stroke-linecap: square"/>
   </g>
   <g id="patch_49">
    <path d="M 907.319081 360.346711 
L 935.514256 360.346711 
L 935.514256 332.151536 
L 907.319081 332.151536 
z
" clip-path="url(#p591e455ca1)" style="fill: #a8a8a8; stroke: #a8a8a8; stroke-width: 1.292684; stroke-linejoin: miter"/>
   </g>
   <g id="patch_50">
    <path d="M 931.28498 350.478399 
C 931.28498 347.862164 930.244576 345.350407 928.394618 343.50045 
C 926.544661 341.650492 924.032903 340.610088 921.416668 340.610088 
C 918.800433 340.610088 916.288676 341.650492 914.438719 343.50045 
C 912.588761 345.350407 911.548357 347.862164 911.548357 350.478399 
" clip-path="url(#p591e455ca1)" style="fill: none; stroke: #000000; stroke-width: 1.723578; stroke-linejoin: miter"/>
   </g>
   <g id="line2d_36">
    <path d="M 921.416668 350.478399 
L 931.28498 340.610088 
" clip-path="url(#p591e455ca1)" style="fill: none; stroke: #000000; stroke-width: 1.723578; stroke-linecap: square"/>
   </g>
   <g id="patch_51">
    <path d="M 950.696273 403.723903 
L 978.891448 403.723903 
L 978.891448 375.528728 
L 950.696273 375.528728 
z
" clip-path="url(#p591e455ca1)" style="fill: #a8a8a8; stroke: #a8a8a8; stroke-width: 1.292684; stroke-linejoin: miter"/>
   </g>
   <g id="patch_52">
    <path d="M 974.662172 393.855592 
C 974.662172 391.239357 973.621768 388.727599 971.771811 386.877642 
C 969.921853 385.027684 967.410096 383.98728 964.793861 383.98728 
C 962.177626 383.98728 959.665869 385.027684 957.815911 386.877642 
C 955.965953 388.727599 954.925549 391.239357 954.925549 393.855592 
" clip-path="url(#p591e455ca1)" style="fill: none; stroke: #000000; stroke-width: 1.723578; stroke-linejoin: miter"/>
   </g>
   <g id="line2d_37">
    <path d="M 964.793861 393.855592 
L 974.662172 383.98728 
" clip-path="url(#p591e455ca1)" style="fill: none; stroke: #000000; stroke-width: 1.723578; stroke-linecap: square"/>
   </g>
   <g id="patch_53">
    <path d="M 994.073466 447.101095 
L 1022.268641 447.101095 
L 1022.268641 418.90592 
L 994.073466 418.90592 
z
" clip-path="url(#p591e455ca1)" style="fill: #a8a8a8; stroke: #a8a8a8; stroke-width: 1.292684; stroke-linejoin: miter"/>
   </g>
   <g id="patch_54">
    <path d="M 1018.039364 437.232784 
C 1018.039364 434.616549 1016.99896 432.104792 1015.149003 430.254834 
C 1013.299045 428.404877 1010.787288 427.364473 1008.171053 427.364473 
C 1005.554818 427.364473 1003.043061 428.404877 1001.193103 430.254834 
C 999.343146 432.104792 998.302742 434.616549 998.302742 437.232784 
" clip-path="url(#p591e455ca1)" style="fill: none; stroke: #000000; stroke-width: 1.723578; stroke-linejoin: miter"/>
   </g>
   <g id="line2d_38">
    <path d="M 1008.171053 437.232784 
L 1018.039364 427.364473 
" clip-path="url(#p591e455ca1)" style="fill: none; stroke: #000000; stroke-width: 1.723578; stroke-linecap: square"/>
   </g>
   <g id="line2d_39">
    <path d="M 270.758783 265.133773 
L 270.758783 253.855703 
" clip-path="url(#p591e455ca1)" style="fill: none; stroke: #ffffff; stroke-width: 1.723578; stroke-linecap: square"/>
   </g>
   <g id="line2d_40">
    <path d="M 265.119748 259.494738 
L 276.397818 259.494738 
" clip-path="url(#p591e455ca1)" style="fill: none; stroke: #ffffff; stroke-width: 1.723578; stroke-linecap: square"/>
   </g>
   <g id="line2d_41">
    <path d="M 270.758783 351.888158 
L 270.758783 340.610088 
" clip-path="url(#p591e455ca1)" style="fill: none; stroke: #ffffff; stroke-width: 1.723578; stroke-linecap: square"/>
   </g>
   <g id="line2d_42">
    <path d="M 265.119748 346.249123 
L 276.397818 346.249123 
" clip-path="url(#p591e455ca1)" style="fill: none; stroke: #ffffff; stroke-width: 1.723578; stroke-linecap: square"/>
   </g>
   <g id="text_2">
    <g clip-path="url(#p591e455ca1)">
     <!-- ${a}_{0}$ -->
     <g transform="translate(180.01803 219.981795) scale(0.140041 -0.140041)">
      <defs>
       <path id="DejaVuSans-Oblique-61" d="M 3438 1997 
L 3047 0 
L 2472 0 
L 2578 531 
Q 2325 219 2001 64 
Q 1678 -91 1281 -91 
Q 834 -91 548 182 
Q 263 456 263 884 
Q 263 1497 752 1853 
Q 1241 2209 2100 2209 
L 2900 2209 
L 2931 2363 
Q 2938 2388 2941 2417 
Q 2944 2447 2944 2509 
Q 2944 2788 2717 2942 
Q 2491 3097 2081 3097 
Q 1800 3097 1504 3025 
Q 1209 2953 897 2809 
L 997 3341 
Q 1322 3463 1633 3523 
Q 1944 3584 2234 3584 
Q 2853 3584 3176 3315 
Q 3500 3047 3500 2534 
Q 3500 2431 3484 2292 
Q 3469 2153 3438 1997 
z
M 2816 1759 
L 2241 1759 
Q 1534 1759 1195 1570 
Q 856 1381 856 984 
Q 856 709 1029 553 
Q 1203 397 1509 397 
Q 1978 397 2328 733 
Q 2678 1069 2791 1631 
L 2816 1759 
z
" transform="scale(0.015625)"/>
       <path id="DejaVuSans-30" d="M 2034 4250 
Q 1547 4250 1301 3770 
Q 1056 3291 1056 2328 
Q 1056 1369 1301 889 
Q 1547 409 2034 409 
Q 2525 409 2770 889 
Q 3016 1369 3016 2328 
Q 3016 3291 2770 3770 
Q 2525 4250 2034 4250 
z
M 2034 4750 
Q 2819 4750 3233 4129 
Q 3647 3509 3647 2328 
Q 3647 1150 3233 529 
Q 2819 -91 2034 -91 
Q 1250 -91 836 529 
Q 422 1150 422 2328 
Q 422 3509 836 4129 
Q 1250 4750 2034 4750 
z
" transform="scale(0.015625)"/>
      </defs>
      <use xlink:href="#DejaVuSans-Oblique-61"/>
      <use xlink:href="#DejaVuSans-30" transform="translate(61.279297 -16.40625) scale(0.7)"/>
     </g>
    </g>
   </g>
   <g id="text_3">
    <g clip-path="url(#p591e455ca1)">
     <!-- ${a}_{1}$ -->
     <g transform="translate(180.01803 263.358987) scale(0.140041 -0.140041)">
      <defs>
       <path id="DejaVuSans-31" d="M 794 531 
L 1825 531 
L 1825 4091 
L 703 3866 
L 703 4441 
L 1819 4666 
L 2450 4666 
L 2450 531 
L 3481 531 
L 3481 0 
L 794 0 
L 794 531 
z
" transform="scale(0.015625)"/>
      </defs>
      <use xlink:href="#DejaVuSans-Oblique-61"/>
      <use xlink:href="#DejaVuSans-31" transform="translate(61.279297 -16.40625) scale(0.7)"/>
     </g>
    </g>
   </g>
   <g id="text_4">
    <g clip-path="url(#p591e455ca1)">
     <!-- ${a}_{2}$ -->
     <g transform="translate(180.01803 306.736179) scale(0.140041 -0.140041)">
      <use xlink:href="#DejaVuSans-Oblique-61"/>
      <use xlink:href="#DejaVuSans-32" transform="translate(61.279297 -16.40625) scale(0.7)"/>
     </g>
    </g>
   </g>
   <g id="text_5">
    <g clip-path="url(#p591e455ca1)">
     <!-- ${a}_{3}$ -->
     <g transform="translate(180.01803 350.113372) scale(0.140041 -0.140041)">
      <defs>
       <path id="DejaVuSans-33" d="M 2597 2516 
Q 3050 2419 3304 2112 
Q 3559 1806 3559 1356 
Q 3559 666 3084 287 
Q 2609 -91 1734 -91 
Q 1441 -91 1130 -33 
Q 819 25 488 141 
L 488 750 
Q 750 597 1062 519 
Q 1375 441 1716 441 
Q 2309 441 2620 675 
Q 2931 909 2931 1356 
Q 2931 1769 2642 2001 
Q 2353 2234 1838 2234 
L 1294 2234 
L 1294 2753 
L 1863 2753 
Q 2328 2753 2575 2939 
Q 2822 3125 2822 3475 
Q 2822 3834 2567 4026 
Q 2313 4219 1838 4219 
Q 1578 4219 1281 4162 
Q 984 4106 628 3988 
L 628 4550 
Q 988 4650 1302 4700 
Q 1616 4750 1894 4750 
Q 2613 4750 3031 4423 
Q 3450 4097 3450 3541 
Q 3450 3153 3228 2886 
Q 3006 2619 2597 2516 
z
" transform="scale(0.015625)"/>
      </defs>
      <use xlink:href="#DejaVuSans-Oblique-61"/>
      <use xlink:href="#DejaVuSans-33" transform="translate(61.279297 -16.40625) scale(0.7)"/>
     </g>
    </g>
   </g>
   <g id="text_6">
    <g clip-path="url(#p591e455ca1)">
     <!-- ${q}_{0}$ -->
     <g transform="translate(179.737949 393.462118) scale(0.140041 -0.140041)">
      <defs>
       <path id="DejaVuSans-Oblique-71" d="M 2669 525 
Q 2438 222 2123 65 
Q 1809 -91 1428 -91 
Q 897 -91 595 267 
Q 294 625 294 1253 
Q 294 1759 480 2231 
Q 666 2703 1013 3078 
Q 1238 3322 1530 3453 
Q 1822 3584 2144 3584 
Q 2531 3584 2781 3431 
Q 3031 3278 3144 2969 
L 3244 3494 
L 3822 3494 
L 2888 -1319 
L 2309 -1319 
L 2669 525 
z
M 891 1338 
Q 891 875 1084 633 
Q 1278 391 1644 391 
Q 2188 391 2572 911 
Q 2956 1431 2956 2175 
Q 2956 2625 2757 2864 
Q 2559 3103 2188 3103 
Q 1916 3103 1684 2976 
Q 1453 2850 1281 2606 
Q 1100 2350 995 2006 
Q 891 1663 891 1338 
z
" transform="scale(0.015625)"/>
      </defs>
      <use xlink:href="#DejaVuSans-Oblique-71"/>
      <use xlink:href="#DejaVuSans-30" transform="translate(63.476562 -16.40625) scale(0.7)"/>
     </g>
    </g>
   </g>
   <g id="text_7">
    <g clip-path="url(#p591e455ca1)">
     <!-- ${q}_{1}$ -->
     <g transform="translate(179.737949 436.839311) scale(0.140041 -0.140041)">
      <use xlink:href="#DejaVuSans-Oblique-71"/>
      <use xlink:href="#DejaVuSans-31" transform="translate(63.476562 -16.40625) scale(0.7)"/>
     </g>
    </g>
   </g>
   <g id="text_8">
    <g clip-path="url(#p591e455ca1)">
     <!-- 4 -->
     <g transform="translate(208.295626 470.179039) scale(0.089626 -0.089626)">
      <defs>
       <path id="DejaVuSans-34" d="M 2419 4116 
L 825 1625 
L 2419 1625 
L 2419 4116 
z
M 2253 4666 
L 3047 4666 
L 3047 1625 
L 3713 1625 
L 3713 1100 
L 3047 1100 
L 3047 0 
L 2419 0 
L 2419 1100 
L 313 1100 
L 313 1709 
L 2253 4666 
z
" transform="scale(0.015625)"/>
      </defs>
      <use xlink:href="#DejaVuSans-34"/>
     </g>
    </g>
   </g>
   <g id="text_9">
    <g clip-path="url(#p591e455ca1)">
     <!-- c_a -->
     <g transform="translate(171.998511 479.85546) scale(0.140041 -0.140041)">
      <defs>
       <path id="DejaVuSans-5f" d="M 3263 -1063 
L 3263 -1509 
L -63 -1509 
L -63 -1063 
L 3263 -1063 
z
" transform="scale(0.015625)"/>
      </defs>
      <use xlink:href="#DejaVuSans-63"/>
      <use xlink:href="#DejaVuSans-5f" x="54.980469"/>
      <use xlink:href="#DejaVuSans-61" x="104.980469"/>
     </g>
    </g>
   </g>
   <g id="text_10">
    <g clip-path="url(#p591e455ca1)">
     <!-- 2 -->
     <g transform="translate(208.295626 513.556231) scale(0.089626 -0.089626)">
      <use xlink:href="#DejaVuSans-32"/>
     </g>
    </g>
   </g>
   <g id="text_11">
    <g clip-path="url(#p591e455ca1)">
     <!-- c_q -->
     <g transform="translate(171.689984 523.232653) scale(0.140041 -0.140041)">
      <defs>
       <path id="DejaVuSans-71" d="M 947 1747 
Q 947 1113 1208 752 
Q 1469 391 1925 391 
Q 2381 391 2643 752 
Q 2906 1113 2906 1747 
Q 2906 2381 2643 2742 
Q 2381 3103 1925 3103 
Q 1469 3103 1208 2742 
Q 947 2381 947 1747 
z
M 2906 525 
Q 2725 213 2448 61 
Q 2172 -91 1784 -91 
Q 1150 -91 751 415 
Q 353 922 353 1747 
Q 353 2572 751 3078 
Q 1150 3584 1784 3584 
Q 2172 3584 2448 3432 
Q 2725 3281 2906 2969 
L 2906 3500 
L 3481 3500 
L 3481 -1331 
L 2906 -1331 
L 2906 525 
z
" transform="scale(0.015625)"/>
      </defs>
      <use xlink:href="#DejaVuSans-63"/>
      <use xlink:href="#DejaVuSans-5f" x="54.980469"/>
      <use xlink:href="#DejaVuSans-71" x="104.980469"/>
     </g>
    </g>
   </g>
   <g id="text_12">
    <g clip-path="url(#p591e455ca1)">
     <!-- 1.23 -->
     <g style="fill: #ffffff" transform="translate(219.706282 226.478498) scale(0.068943 -0.068943)">
      <defs>
       <path id="DejaVuSans-2e" d="M 684 794 
L 1344 794 
L 1344 0 
L 684 0 
L 684 794 
z
" transform="scale(0.015625)"/>
      </defs>
      <use xlink:href="#DejaVuSans-31"/>
      <use xlink:href="#DejaVuSans-2e" x="63.623047"/>
      <use xlink:href="#DejaVuSans-32" x="95.410156"/>
      <use xlink:href="#DejaVuSans-33" x="159.033203"/>
     </g>
    </g>
   </g>
   <g id="text_13">
    <g clip-path="url(#p591e455ca1)">
     <!-- $\mathrm{R_Y}$ -->
     <g style="fill: #ffffff" transform="translate(220.883702 214.979669) scale(0.112033 -0.112033)">
      <defs>
       <path id="DejaVuSans-52" d="M 2841 2188 
Q 3044 2119 3236 1894 
Q 3428 1669 3622 1275 
L 4263 0 
L 3584 0 
L 2988 1197 
Q 2756 1666 2539 1819 
Q 2322 1972 1947 1972 
L 1259 1972 
L 1259 0 
L 628 0 
L 628 4666 
L 2053 4666 
Q 2853 4666 3247 4331 
Q 3641 3997 3641 3322 
Q 3641 2881 3436 2590 
Q 3231 2300 2841 2188 
z
M 1259 4147 
L 1259 2491 
L 2053 2491 
Q 2509 2491 2742 2702 
Q 2975 2913 2975 3322 
Q 2975 3731 2742 3939 
Q 2509 4147 2053 4147 
L 1259 4147 
z
" transform="scale(0.015625)"/>
       <path id="DejaVuSans-59" d="M -13 4666 
L 666 4666 
L 1959 2747 
L 3244 4666 
L 3922 4666 
L 2272 2222 
L 2272 0 
L 1638 0 
L 1638 2222 
L -13 4666 
z
" transform="scale(0.015625)"/>
      </defs>
      <use xlink:href="#DejaVuSans-52" transform="translate(0 0.09375)"/>
      <use xlink:href="#DejaVuSans-59" transform="translate(70.439453 -16.3125) scale(0.7)"/>
     </g>
    </g>
   </g>
   <g id="text_14">
    <g clip-path="url(#p591e455ca1)">
     <!-- $\pi$/2 -->
     <g style="fill: #ffffff" transform="translate(222.072971 269.85569) scale(0.068943 -0.068943)">
      <defs>
       <path id="DejaVuSans-Oblique-3c0" d="M 584 3500 
L 3938 3500 
L 3825 2925 
L 3384 2925 
L 2966 775 
Q 2922 550 2981 450 
Q 3038 353 3209 353 
Q 3256 353 3325 363 
Q 3397 369 3419 372 
L 3338 -44 
Q 3222 -84 3103 -103 
Q 2981 -122 2866 -122 
Q 2491 -122 2388 81 
Q 2284 288 2391 838 
L 2797 2925 
L 1506 2925 
L 938 0 
L 350 0 
L 919 2925 
L 472 2925 
L 584 3500 
z
" transform="scale(0.015625)"/>
       <path id="DejaVuSans-2f" d="M 1625 4666 
L 2156 4666 
L 531 -594 
L 0 -594 
L 1625 4666 
z
" transform="scale(0.015625)"/>
      </defs>
      <use xlink:href="#DejaVuSans-Oblique-3c0" transform="translate(0 0.78125)"/>
      <use xlink:href="#DejaVuSans-2f" transform="translate(60.205078 0.78125)"/>
      <use xlink:href="#DejaVuSans-32" transform="translate(90.271484 0.78125)"/>
     </g>
    </g>
   </g>
   <g id="text_15">
    <g clip-path="url(#p591e455ca1)">
     <!-- $\mathrm{R_Y}$ -->
     <g style="fill: #ffffff" transform="translate(220.883702 258.356861) scale(0.112033 -0.112033)">
      <use xlink:href="#DejaVuSans-52" transform="translate(0 0.09375)"/>
      <use xlink:href="#DejaVuSans-59" transform="translate(70.439453 -16.3125) scale(0.7)"/>
     </g>
    </g>
   </g>
   <g id="text_16">
    <g clip-path="url(#p591e455ca1)">
     <!-- 1.23 -->
     <g style="fill: #ffffff" transform="translate(219.706282 313.232883) scale(0.068943 -0.068943)">
      <use xlink:href="#DejaVuSans-31"/>
      <use xlink:href="#DejaVuSans-2e" x="63.623047"/>
      <use xlink:href="#DejaVuSans-32" x="95.410156"/>
      <use xlink:href="#DejaVuSans-33" x="159.033203"/>
     </g>
    </g>
   </g>
   <g id="text_17">
    <g clip-path="url(#p591e455ca1)">
     <!-- $\mathrm{R_Y}$ -->
     <g style="fill: #ffffff" transform="translate(220.883702 301.734053) scale(0.112033 -0.112033)">
      <use xlink:href="#DejaVuSans-52" transform="translate(0 0.09375)"/>
      <use xlink:href="#DejaVuSans-59" transform="translate(70.439453 -16.3125) scale(0.7)"/>
     </g>
    </g>
   </g>
   <g id="text_18">
    <g clip-path="url(#p591e455ca1)">
     <!-- $\pi$/2 -->
     <g style="fill: #ffffff" transform="translate(222.072971 356.610075) scale(0.068943 -0.068943)">
      <use xlink:href="#DejaVuSans-Oblique-3c0" transform="translate(0 0.78125)"/>
      <use xlink:href="#DejaVuSans-2f" transform="translate(60.205078 0.78125)"/>
      <use xlink:href="#DejaVuSans-32" transform="translate(90.271484 0.78125)"/>
     </g>
    </g>
   </g>
   <g id="text_19">
    <g clip-path="url(#p591e455ca1)">
     <!-- $\mathrm{R_Y}$ -->
     <g style="fill: #ffffff" transform="translate(220.883702 345.111246) scale(0.112033 -0.112033)">
      <use xlink:href="#DejaVuSans-52" transform="translate(0 0.09375)"/>
      <use xlink:href="#DejaVuSans-59" transform="translate(70.439453 -16.3125) scale(0.7)"/>
     </g>
    </g>
   </g>
   <g id="text_20">
    <g clip-path="url(#p591e455ca1)">
     <!-- 0, $\pi$ -->
     <g style="fill: #ffffff" transform="translate(220.900938 399.987267) scale(0.068943 -0.068943)">
      <defs>
       <path id="DejaVuSans-2c" d="M 750 794 
L 1409 794 
L 1409 256 
L 897 -744 
L 494 -744 
L 750 256 
L 750 794 
z
" transform="scale(0.015625)"/>
      </defs>
      <use xlink:href="#DejaVuSans-30" transform="translate(0 0.78125)"/>
      <use xlink:href="#DejaVuSans-2c" transform="translate(63.623047 0.78125)"/>
      <use xlink:href="#DejaVuSans-20" transform="translate(95.410156 0.78125)"/>
      <use xlink:href="#DejaVuSans-Oblique-3c0" transform="translate(127.197266 0.78125)"/>
     </g>
    </g>
   </g>
   <g id="text_21">
    <g clip-path="url(#p591e455ca1)">
     <!-- $\mathrm{U_2}$ -->
     <g style="fill: #ffffff" transform="translate(220.547604 388.488438) scale(0.112033 -0.112033)">
      <defs>
       <path id="DejaVuSans-55" d="M 556 4666 
L 1191 4666 
L 1191 1831 
Q 1191 1081 1462 751 
Q 1734 422 2344 422 
Q 2950 422 3222 751 
Q 3494 1081 3494 1831 
L 3494 4666 
L 4128 4666 
L 4128 1753 
Q 4128 841 3676 375 
Q 3225 -91 2344 -91 
Q 1459 -91 1007 375 
Q 556 841 556 1753 
L 556 4666 
z
" transform="scale(0.015625)"/>
      </defs>
      <use xlink:href="#DejaVuSans-55" transform="translate(0 0.09375)"/>
      <use xlink:href="#DejaVuSans-32" transform="translate(74.150391 -16.3125) scale(0.7)"/>
     </g>
    </g>
   </g>
   <g id="text_22">
    <g clip-path="url(#p591e455ca1)">
     <!-- 0, $\pi$ -->
     <g style="fill: #ffffff" transform="translate(220.900938 443.36446) scale(0.068943 -0.068943)">
      <use xlink:href="#DejaVuSans-30" transform="translate(0 0.78125)"/>
      <use xlink:href="#DejaVuSans-2c" transform="translate(63.623047 0.78125)"/>
      <use xlink:href="#DejaVuSans-20" transform="translate(95.410156 0.78125)"/>
      <use xlink:href="#DejaVuSans-Oblique-3c0" transform="translate(127.197266 0.78125)"/>
     </g>
    </g>
   </g>
   <g id="text_23">
    <g clip-path="url(#p591e455ca1)">
     <!-- $\mathrm{U_2}$ -->
     <g style="fill: #ffffff" transform="translate(220.547604 431.86563) scale(0.112033 -0.112033)">
      <use xlink:href="#DejaVuSans-55" transform="translate(0 0.09375)"/>
      <use xlink:href="#DejaVuSans-32" transform="translate(74.150391 -16.3125) scale(0.7)"/>
     </g>
    </g>
   </g>
   <g id="text_24">
    <g clip-path="url(#p591e455ca1)">
     <!-- $-$3$\pi$/2 -->
     <g style="fill: #ffffff" transform="translate(303.725564 269.85569) scale(0.068943 -0.068943)">
      <defs>
       <path id="DejaVuSans-2212" d="M 678 2272 
L 4684 2272 
L 4684 1741 
L 678 1741 
L 678 2272 
z
" transform="scale(0.015625)"/>
      </defs>
      <use xlink:href="#DejaVuSans-2212" transform="translate(0 0.78125)"/>
      <use xlink:href="#DejaVuSans-33" transform="translate(83.789062 0.78125)"/>
      <use xlink:href="#DejaVuSans-Oblique-3c0" transform="translate(147.412109 0.78125)"/>
      <use xlink:href="#DejaVuSans-2f" transform="translate(207.617188 0.78125)"/>
      <use xlink:href="#DejaVuSans-32" transform="translate(237.683594 0.78125)"/>
     </g>
    </g>
   </g>
   <g id="text_25">
    <g clip-path="url(#p591e455ca1)">
     <!-- $\mathrm{R_Z}$ -->
     <g style="fill: #ffffff" transform="translate(307.301989 258.356861) scale(0.112033 -0.112033)">
      <defs>
       <path id="DejaVuSans-5a" d="M 359 4666 
L 4025 4666 
L 4025 4184 
L 1075 531 
L 4097 531 
L 4097 0 
L 288 0 
L 288 481 
L 3238 4134 
L 359 4134 
L 359 4666 
z
" transform="scale(0.015625)"/>
      </defs>
      <use xlink:href="#DejaVuSans-52" transform="translate(0 0.09375)"/>
      <use xlink:href="#DejaVuSans-5a" transform="translate(70.439453 -16.3125) scale(0.7)"/>
     </g>
    </g>
   </g>
   <g id="text_26">
    <g clip-path="url(#p591e455ca1)">
     <!-- $-$3$\pi$/2 -->
     <g style="fill: #ffffff" transform="translate(303.725564 356.610075) scale(0.068943 -0.068943)">
      <use xlink:href="#DejaVuSans-2212" transform="translate(0 0.78125)"/>
      <use xlink:href="#DejaVuSans-33" transform="translate(83.789062 0.78125)"/>
      <use xlink:href="#DejaVuSans-Oblique-3c0" transform="translate(147.412109 0.78125)"/>
      <use xlink:href="#DejaVuSans-2f" transform="translate(207.617188 0.78125)"/>
      <use xlink:href="#DejaVuSans-32" transform="translate(237.683594 0.78125)"/>
     </g>
    </g>
   </g>
   <g id="text_27">
    <g clip-path="url(#p591e455ca1)">
     <!-- $\mathrm{R_Z}$ -->
     <g style="fill: #ffffff" transform="translate(307.301989 345.111246) scale(0.112033 -0.112033)">
      <use xlink:href="#DejaVuSans-52" transform="translate(0 0.09375)"/>
      <use xlink:href="#DejaVuSans-5a" transform="translate(70.439453 -16.3125) scale(0.7)"/>
     </g>
    </g>
   </g>
   <g id="text_28">
    <g clip-path="url(#p591e455ca1)">
     <!-- 0 -->
     <g style="fill: #ffffff" transform="translate(355.136098 392.717714) scale(0.112033 -0.112033)">
      <use xlink:href="#DejaVuSans-30"/>
     </g>
    </g>
   </g>
   <g id="text_29">
    <g clip-path="url(#p591e455ca1)">
     <!-- 1 -->
     <g style="fill: #ffffff" transform="translate(355.136098 436.094907) scale(0.112033 -0.112033)">
      <use xlink:href="#DejaVuSans-31"/>
     </g>
    </g>
   </g>
   <g id="text_30">
    <g clip-path="url(#p591e455ca1)">
     <!-- $-$0.5 -->
     <g style="fill: #ffffff" transform="translate(375.596666 420.591434) scale(0.068943 -0.068943)">
      <defs>
       <path id="DejaVuSans-35" d="M 691 4666 
L 3169 4666 
L 3169 4134 
L 1269 4134 
L 1269 2991 
Q 1406 3038 1543 3061 
Q 1681 3084 1819 3084 
Q 2600 3084 3056 2656 
Q 3513 2228 3513 1497 
Q 3513 744 3044 326 
Q 2575 -91 1722 -91 
Q 1428 -91 1123 -41 
Q 819 9 494 109 
L 494 744 
Q 775 591 1075 516 
Q 1375 441 1709 441 
Q 2250 441 2565 725 
Q 2881 1009 2881 1497 
Q 2881 1984 2565 2268 
Q 2250 2553 1709 2553 
Q 1456 2553 1204 2497 
Q 953 2441 691 2322 
L 691 4666 
z
" transform="scale(0.015625)"/>
      </defs>
      <use xlink:href="#DejaVuSans-2212" transform="translate(0 0.78125)"/>
      <use xlink:href="#DejaVuSans-30" transform="translate(83.789062 0.78125)"/>
      <use xlink:href="#DejaVuSans-2e" transform="translate(147.412109 0.78125)"/>
      <use xlink:href="#DejaVuSans-35" transform="translate(179.199219 0.78125)"/>
     </g>
    </g>
   </g>
   <g id="text_31">
    <g clip-path="url(#p591e455ca1)">
     <!-- U(-t/M) -->
     <g style="fill: #ffffff" transform="translate(364.565362 407.46596) scale(0.112033 -0.112033)">
      <defs>
       <path id="DejaVuSans-28" d="M 1984 4856 
Q 1566 4138 1362 3434 
Q 1159 2731 1159 2009 
Q 1159 1288 1364 580 
Q 1569 -128 1984 -844 
L 1484 -844 
Q 1016 -109 783 600 
Q 550 1309 550 2009 
Q 550 2706 781 3412 
Q 1013 4119 1484 4856 
L 1984 4856 
z
" transform="scale(0.015625)"/>
       <path id="DejaVuSans-2d" d="M 313 2009 
L 1997 2009 
L 1997 1497 
L 313 1497 
L 313 2009 
z
" transform="scale(0.015625)"/>
       <path id="DejaVuSans-4d" d="M 628 4666 
L 1569 4666 
L 2759 1491 
L 3956 4666 
L 4897 4666 
L 4897 0 
L 4281 0 
L 4281 4097 
L 3078 897 
L 2444 897 
L 1241 4097 
L 1241 0 
L 628 0 
L 628 4666 
z
" transform="scale(0.015625)"/>
       <path id="DejaVuSans-29" d="M 513 4856 
L 1013 4856 
Q 1481 4119 1714 3412 
Q 1947 2706 1947 2009 
Q 1947 1309 1714 600 
Q 1481 -109 1013 -844 
L 513 -844 
Q 928 -128 1133 580 
Q 1338 1288 1338 2009 
Q 1338 2731 1133 3434 
Q 928 4138 513 4856 
z
" transform="scale(0.015625)"/>
      </defs>
      <use xlink:href="#DejaVuSans-55"/>
      <use xlink:href="#DejaVuSans-28" x="73.193359"/>
      <use xlink:href="#DejaVuSans-2d" x="112.207031"/>
      <use xlink:href="#DejaVuSans-74" x="148.291016"/>
      <use xlink:href="#DejaVuSans-2f" x="187.5"/>
      <use xlink:href="#DejaVuSans-4d" x="221.191406"/>
      <use xlink:href="#DejaVuSans-29" x="307.470703"/>
     </g>
    </g>
   </g>
   <g id="text_32">
    <g clip-path="url(#p591e455ca1)">
     <!-- 0 -->
     <g style="fill: #ffffff" transform="translate(440.081654 392.717714) scale(0.112033 -0.112033)">
      <use xlink:href="#DejaVuSans-30"/>
     </g>
    </g>
   </g>
   <g id="text_33">
    <g clip-path="url(#p591e455ca1)">
     <!-- 1 -->
     <g style="fill: #ffffff" transform="translate(440.081654 436.094907) scale(0.112033 -0.112033)">
      <use xlink:href="#DejaVuSans-31"/>
     </g>
    </g>
   </g>
   <g id="text_34">
    <g clip-path="url(#p591e455ca1)">
     <!-- 1 -->
     <g style="fill: #ffffff" transform="translate(468.534387 420.591434) scale(0.068943 -0.068943)">
      <use xlink:href="#DejaVuSans-31"/>
     </g>
    </g>
   </g>
   <g id="text_35">
    <g clip-path="url(#p591e455ca1)">
     <!-- U(2t/M) -->
     <g style="fill: #ffffff" transform="translate(449.776673 407.46596) scale(0.112033 -0.112033)">
      <use xlink:href="#DejaVuSans-55"/>
      <use xlink:href="#DejaVuSans-28" x="73.193359"/>
      <use xlink:href="#DejaVuSans-32" x="112.207031"/>
      <use xlink:href="#DejaVuSans-74" x="175.830078"/>
      <use xlink:href="#DejaVuSans-2f" x="215.039062"/>
      <use xlink:href="#DejaVuSans-4d" x="248.730469"/>
      <use xlink:href="#DejaVuSans-29" x="335.009766"/>
     </g>
    </g>
   </g>
   <g id="text_36">
    <g clip-path="url(#p591e455ca1)">
     <!-- 0, $\pi$ -->
     <g style="fill: #ffffff" transform="translate(546.22988 226.478498) scale(0.068943 -0.068943)">
      <use xlink:href="#DejaVuSans-30" transform="translate(0 0.78125)"/>
      <use xlink:href="#DejaVuSans-2c" transform="translate(63.623047 0.78125)"/>
      <use xlink:href="#DejaVuSans-20" transform="translate(95.410156 0.78125)"/>
      <use xlink:href="#DejaVuSans-Oblique-3c0" transform="translate(127.197266 0.78125)"/>
     </g>
    </g>
   </g>
   <g id="text_37">
    <g clip-path="url(#p591e455ca1)">
     <!-- $\mathrm{U_2}$ -->
     <g style="fill: #ffffff" transform="translate(545.876547 214.979669) scale(0.112033 -0.112033)">
      <use xlink:href="#DejaVuSans-55" transform="translate(0 0.09375)"/>
      <use xlink:href="#DejaVuSans-32" transform="translate(74.150391 -16.3125) scale(0.7)"/>
     </g>
    </g>
   </g>
   <g id="text_38">
    <g clip-path="url(#p591e455ca1)">
     <!-- 0, $\pi$ -->
     <g style="fill: #ffffff" transform="translate(546.22988 269.85569) scale(0.068943 -0.068943)">
      <use xlink:href="#DejaVuSans-30" transform="translate(0 0.78125)"/>
      <use xlink:href="#DejaVuSans-2c" transform="translate(63.623047 0.78125)"/>
      <use xlink:href="#DejaVuSans-20" transform="translate(95.410156 0.78125)"/>
      <use xlink:href="#DejaVuSans-Oblique-3c0" transform="translate(127.197266 0.78125)"/>
     </g>
    </g>
   </g>
   <g id="text_39">
    <g clip-path="url(#p591e455ca1)">
     <!-- $\mathrm{U_2}$ -->
     <g style="fill: #ffffff" transform="translate(545.876547 258.356861) scale(0.112033 -0.112033)">
      <use xlink:href="#DejaVuSans-55" transform="translate(0 0.09375)"/>
      <use xlink:href="#DejaVuSans-32" transform="translate(74.150391 -16.3125) scale(0.7)"/>
     </g>
    </g>
   </g>
   <g id="text_40">
    <g clip-path="url(#p591e455ca1)">
     <!-- 0 -->
     <g style="fill: #ffffff" transform="translate(528.644867 392.717714) scale(0.112033 -0.112033)">
      <use xlink:href="#DejaVuSans-30"/>
     </g>
    </g>
   </g>
   <g id="text_41">
    <g clip-path="url(#p591e455ca1)">
     <!-- 1 -->
     <g style="fill: #ffffff" transform="translate(528.644867 436.094907) scale(0.112033 -0.112033)">
      <use xlink:href="#DejaVuSans-31"/>
     </g>
    </g>
   </g>
   <g id="text_42">
    <g clip-path="url(#p591e455ca1)">
     <!-- $-$0.5 -->
     <g style="fill: #ffffff" transform="translate(549.105435 420.591434) scale(0.068943 -0.068943)">
      <use xlink:href="#DejaVuSans-2212" transform="translate(0 0.78125)"/>
      <use xlink:href="#DejaVuSans-30" transform="translate(83.789062 0.78125)"/>
      <use xlink:href="#DejaVuSans-2e" transform="translate(147.412109 0.78125)"/>
      <use xlink:href="#DejaVuSans-35" transform="translate(179.199219 0.78125)"/>
     </g>
    </g>
   </g>
   <g id="text_43">
    <g clip-path="url(#p591e455ca1)">
     <!-- U(-t/M) -->
     <g style="fill: #ffffff" transform="translate(538.074132 407.46596) scale(0.112033 -0.112033)">
      <use xlink:href="#DejaVuSans-55"/>
      <use xlink:href="#DejaVuSans-28" x="73.193359"/>
      <use xlink:href="#DejaVuSans-2d" x="112.207031"/>
      <use xlink:href="#DejaVuSans-74" x="148.291016"/>
      <use xlink:href="#DejaVuSans-2f" x="187.5"/>
      <use xlink:href="#DejaVuSans-4d" x="221.191406"/>
      <use xlink:href="#DejaVuSans-29" x="307.470703"/>
     </g>
    </g>
   </g>
   <g id="text_44">
    <g clip-path="url(#p591e455ca1)">
     <!-- 0 -->
     <g style="fill: #ffffff" transform="translate(613.590423 392.717714) scale(0.112033 -0.112033)">
      <use xlink:href="#DejaVuSans-30"/>
     </g>
    </g>
   </g>
   <g id="text_45">
    <g clip-path="url(#p591e455ca1)">
     <!-- 1 -->
     <g style="fill: #ffffff" transform="translate(613.590423 436.094907) scale(0.112033 -0.112033)">
      <use xlink:href="#DejaVuSans-31"/>
     </g>
    </g>
   </g>
   <g id="text_46">
    <g clip-path="url(#p591e455ca1)">
     <!-- 1 -->
     <g style="fill: #ffffff" transform="translate(642.043156 420.591434) scale(0.068943 -0.068943)">
      <use xlink:href="#DejaVuSans-31"/>
     </g>
    </g>
   </g>
   <g id="text_47">
    <g clip-path="url(#p591e455ca1)">
     <!-- U(2t/M) -->
     <g style="fill: #ffffff" transform="translate(623.285443 407.46596) scale(0.112033 -0.112033)">
      <use xlink:href="#DejaVuSans-55"/>
      <use xlink:href="#DejaVuSans-28" x="73.193359"/>
      <use xlink:href="#DejaVuSans-32" x="112.207031"/>
      <use xlink:href="#DejaVuSans-74" x="175.830078"/>
      <use xlink:href="#DejaVuSans-2f" x="215.039062"/>
      <use xlink:href="#DejaVuSans-4d" x="248.730469"/>
      <use xlink:href="#DejaVuSans-29" x="335.009766"/>
     </g>
    </g>
   </g>
   <g id="text_48">
    <g clip-path="url(#p591e455ca1)">
     <!-- 0, $\pi$ -->
     <g style="fill: #ffffff" transform="translate(698.050053 313.232883) scale(0.068943 -0.068943)">
      <use xlink:href="#DejaVuSans-30" transform="translate(0 0.78125)"/>
      <use xlink:href="#DejaVuSans-2c" transform="translate(63.623047 0.78125)"/>
      <use xlink:href="#DejaVuSans-20" transform="translate(95.410156 0.78125)"/>
      <use xlink:href="#DejaVuSans-Oblique-3c0" transform="translate(127.197266 0.78125)"/>
     </g>
    </g>
   </g>
   <g id="text_49">
    <g clip-path="url(#p591e455ca1)">
     <!-- $\mathrm{U_2}$ -->
     <g style="fill: #ffffff" transform="translate(697.69672 301.734053) scale(0.112033 -0.112033)">
      <use xlink:href="#DejaVuSans-55" transform="translate(0 0.09375)"/>
      <use xlink:href="#DejaVuSans-32" transform="translate(74.150391 -16.3125) scale(0.7)"/>
     </g>
    </g>
   </g>
   <g id="text_50">
    <g clip-path="url(#p591e455ca1)">
     <!-- 0, $\pi$ -->
     <g style="fill: #ffffff" transform="translate(698.050053 356.610075) scale(0.068943 -0.068943)">
      <use xlink:href="#DejaVuSans-30" transform="translate(0 0.78125)"/>
      <use xlink:href="#DejaVuSans-2c" transform="translate(63.623047 0.78125)"/>
      <use xlink:href="#DejaVuSans-20" transform="translate(95.410156 0.78125)"/>
      <use xlink:href="#DejaVuSans-Oblique-3c0" transform="translate(127.197266 0.78125)"/>
     </g>
    </g>
   </g>
   <g id="text_51">
    <g clip-path="url(#p591e455ca1)">
     <!-- $\mathrm{U_2}$ -->
     <g style="fill: #ffffff" transform="translate(697.69672 345.111246) scale(0.112033 -0.112033)">
      <use xlink:href="#DejaVuSans-55" transform="translate(0 0.09375)"/>
      <use xlink:href="#DejaVuSans-32" transform="translate(74.150391 -16.3125) scale(0.7)"/>
     </g>
    </g>
   </g>
   <g id="line2d_43">
    <path d="M 747.907899 209.610967 
L 747.907899 237.806142 
" clip-path="url(#p591e455ca1)" style="fill: none; stroke-dasharray: 3.188619,1.378862; stroke-dashoffset: 0; stroke: #000000; stroke-width: 0.861789"/>
   </g>
   <g id="text_52">
    <g clip-path="url(#p591e455ca1)">
     <!-- final -->
     <g transform="translate(735.840765 206.303407) scale(0.112033 -0.112033)">
      <defs>
       <path id="DejaVuSans-6c" d="M 603 4863 
L 1178 4863 
L 1178 0 
L 603 0 
L 603 4863 
z
" transform="scale(0.015625)"/>
      </defs>
      <use xlink:href="#DejaVuSans-66"/>
      <use xlink:href="#DejaVuSans-69" x="35.205078"/>
      <use xlink:href="#DejaVuSans-6e" x="62.988281"/>
      <use xlink:href="#DejaVuSans-61" x="126.367188"/>
      <use xlink:href="#DejaVuSans-6c" x="187.646484"/>
     </g>
    </g>
   </g>
   <g id="line2d_44">
    <path d="M 747.907899 237.806142 
L 747.907899 281.183335 
" clip-path="url(#p591e455ca1)" style="fill: none; stroke-dasharray: 3.188619,1.378862; stroke-dashoffset: 0; stroke: #000000; stroke-width: 0.861789"/>
   </g>
   <g id="line2d_45">
    <path d="M 747.907899 281.183335 
L 747.907899 324.560527 
" clip-path="url(#p591e455ca1)" style="fill: none; stroke-dasharray: 3.188619,1.378862; stroke-dashoffset: 0; stroke: #000000; stroke-width: 0.861789"/>
   </g>
   <g id="line2d_46">
    <path d="M 747.907899 324.560527 
L 747.907899 367.937719 
" clip-path="url(#p591e455ca1)" style="fill: none; stroke-dasharray: 3.188619,1.378862; stroke-dashoffset: 0; stroke: #000000; stroke-width: 0.861789"/>
   </g>
   <g id="line2d_47">
    <path d="M 747.907899 367.937719 
L 747.907899 411.314912 
" clip-path="url(#p591e455ca1)" style="fill: none; stroke-dasharray: 3.188619,1.378862; stroke-dashoffset: 0; stroke: #000000; stroke-width: 0.861789"/>
   </g>
   <g id="line2d_48">
    <path d="M 747.907899 411.314912 
L 747.907899 454.692104 
" clip-path="url(#p591e455ca1)" style="fill: none; stroke-dasharray: 3.188619,1.378862; stroke-dashoffset: 0; stroke: #000000; stroke-width: 0.861789"/>
   </g>
   <g id="text_53">
    <g clip-path="url(#p591e455ca1)">
     <!-- 0 -->
     <g transform="translate(802.129389 470.179039) scale(0.089626 -0.089626)">
      <use xlink:href="#DejaVuSans-30"/>
     </g>
    </g>
   </g>
   <g id="text_54">
    <g clip-path="url(#p591e455ca1)">
     <!-- 1 -->
     <g transform="translate(845.506582 470.179039) scale(0.089626 -0.089626)">
      <use xlink:href="#DejaVuSans-31"/>
     </g>
    </g>
   </g>
   <g id="text_55">
    <g clip-path="url(#p591e455ca1)">
     <!-- 2 -->
     <g transform="translate(888.883774 470.179039) scale(0.089626 -0.089626)">
      <use xlink:href="#DejaVuSans-32"/>
     </g>
    </g>
   </g>
   <g id="text_56">
    <g clip-path="url(#p591e455ca1)">
     <!-- 3 -->
     <g transform="translate(932.260966 470.179039) scale(0.089626 -0.089626)">
      <use xlink:href="#DejaVuSans-33"/>
     </g>
    </g>
   </g>
   <g id="text_57">
    <g clip-path="url(#p591e455ca1)">
     <!-- 0 -->
     <g transform="translate(975.638159 513.556231) scale(0.089626 -0.089626)">
      <use xlink:href="#DejaVuSans-30"/>
     </g>
    </g>
   </g>
   <g id="text_58">
    <g clip-path="url(#p591e455ca1)">
     <!-- 1 -->
     <g transform="translate(1019.015351 513.556231) scale(0.089626 -0.089626)">
      <use xlink:href="#DejaVuSans-31"/>
     </g>
    </g>
   </g>
  </g>
 </g>
 <defs>
  <clipPath id="p591e455ca1">
   <rect x="144" y="181.415792" width="892.8" height="364.368416"/>
  </clipPath>
 </defs>
</svg>
